<?xml version="1.0" standalone="no"?>
<!DOCTYPE svg PUBLIC "-//W3C//DTD SVG 20010904//EN"
 "http://www.w3.org/TR/2001/REC-SVG-20010904/DTD/svg10.dtd">
<svg version="1.0" xmlns="http://www.w3.org/2000/svg"
 width="500.000000pt" height="500.000000pt" viewBox="0 0 500.000000 500.000000"
 preserveAspectRatio="xMidYMid meet">

<g transform="translate(0.000000,500.000000) scale(0.100000,-0.100000)"
fill="#000000" stroke="none">
<path d="M2190 4989 c-465 -56 -910 -242 -1280 -535 -47 -37 -141 -124 -210
-193 -348 -351 -583 -792 -679 -1280 -19 -93 -21 -140 -21 -475 0 -395 3 -432
54 -632 14 -55 42 -147 61 -205 48 -140 188 -421 270 -544 393 -588 981 -971
1682 -1097 114 -20 160 -23 418 -23 235 0 311 3 400 18 545 91 1002 324 1385
707 383 382 617 841 707 1385 14 88 18 165 18 390 0 248 -3 295 -23 408 -191
1066 -991 1868 -2053 2057 -103 19 -169 23 -389 26 -146 1 -299 -2 -340 -7z
m560 -320 c486 -57 938 -276 1285 -624 736 -735 854 -1877 285 -2740 -95 -143
-171 -233 -306 -365 -184 -179 -343 -291 -569 -400 -300 -146 -597 -214 -930
-213 -257 0 -458 31 -691 108 -789 259 -1371 960 -1479 1782 -20 152 -20 424
0 576 114 870 760 1601 1610 1822 251 65 540 85 795 54z"/>
<path d="M891 3549 c-26 -26 -31 -38 -31 -80 0 -53 19 -92 54 -112 13 -7 83
-14 181 -17 l159 -5 19 -50 c10 -27 22 -61 27 -75 5 -14 18 -50 30 -80 12 -30
25 -66 30 -80 5 -14 18 -50 30 -80 12 -30 25 -66 30 -80 5 -14 17 -47 28 -75
11 -27 79 -207 152 -400 73 -192 141 -372 152 -400 11 -27 23 -61 28 -75 5
-14 18 -50 30 -80 29 -72 35 -100 22 -100 -22 0 -106 -96 -131 -150 -22 -46
-26 -69 -26 -140 0 -103 27 -170 97 -241 70 -70 119 -89 232 -89 53 0 106 5
122 13 81 35 141 93 181 174 24 50 28 70 28 146 l0 87 310 0 310 0 0 -93 c1
-110 23 -165 95 -237 70 -71 121 -90 235 -90 83 0 102 3 146 26 54 27 121 90
146 138 97 187 19 402 -177 486 -29 12 -138 15 -675 20 l-639 5 -19 50 c-10
28 -21 58 -24 68 -5 16 34 17 721 17 l725 0 33 33 c24 24 40 56 57 113 13 43
29 97 36 119 8 22 28 87 45 145 17 58 37 123 45 145 14 45 28 91 75 245 17 58
37 123 45 145 7 22 18 56 24 76 17 54 14 140 -7 165 -45 57 15 54 -1182 54
-960 0 -1100 2 -1100 15 0 8 -6 29 -14 47 -8 18 -21 52 -30 76 -9 23 -23 61
-32 85 -36 95 -59 138 -80 152 -19 12 -65 15 -253 15 l-229 0 -31 -31z m1372
-697 c4 -49 10 -121 13 -160 l7 -72 -250 0 -250 0 -42 113 c-24 61 -51 133
-61 160 l-18 47 297 0 298 0 6 -88z m632 61 c-2 -16 -7 -77 -10 -138 -3 -60
-8 -120 -11 -133 l-6 -22 -227 2 -226 3 -6 70 c-4 39 -9 109 -12 158 l-5 87
254 0 254 0 -5 -27z m685 19 c0 -5 -13 -49 -29 -98 -16 -49 -37 -117 -47 -151
l-19 -62 -242 -3 c-212 -3 -242 -1 -239 12 3 8 10 81 17 163 l12 147 274 0
c150 0 273 -4 273 -8z m-1286 -504 c3 -29 9 -93 13 -143 l8 -90 -186 3 c-166
2 -188 5 -194 20 -20 50 -95 254 -95 257 0 3 101 5 224 5 l225 0 5 -52z m566
12 c0 -21 -5 -84 -11 -140 l-12 -100 -192 0 c-165 0 -194 2 -199 15 -3 9 -9
72 -12 140 l-7 125 216 0 217 0 0 -40z m580 35 c0 -3 -9 -34 -20 -68 -40 -126
-48 -153 -54 -179 l-6 -27 -195 -3 c-107 -2 -195 0 -195 4 0 16 21 215 26 246
l5 32 219 0 c121 0 220 -2 220 -5z m-1389 -925 c10 -6 26 -24 34 -41 31 -59
-14 -129 -82 -129 -51 0 -86 37 -86 90 0 35 6 48 27 67 29 24 74 30 107 13z
m1293 -11 c22 -17 26 -28 26 -69 0 -41 -4 -52 -26 -69 -61 -48 -149 -8 -149
67 0 81 85 121 149 71z"/>
</g>
</svg>
