<?xml version="1.0" standalone="no"?>
<!DOCTYPE svg PUBLIC "-//W3C//DTD SVG 20010904//EN"
 "http://www.w3.org/TR/2001/REC-SVG-20010904/DTD/svg10.dtd">
<svg version="1.0" xmlns="http://www.w3.org/2000/svg"
 width="500.000000pt" height="500.000000pt" viewBox="0 0 500.000000 500.000000"
 preserveAspectRatio="xMidYMid meet">

<g transform="translate(0.000000,500.000000) scale(0.100000,-0.100000)"
fill="#000000" stroke="none">
<path d="M2190 4989 c-465 -56 -910 -242 -1280 -535 -47 -37 -141 -124 -210
-193 -348 -351 -583 -792 -679 -1280 -19 -93 -21 -140 -21 -475 0 -395 3 -432
54 -632 14 -55 42 -147 61 -205 48 -140 188 -421 270 -544 393 -588 981 -971
1682 -1097 114 -20 160 -23 418 -23 235 0 311 3 400 18 545 91 1002 324 1385
707 383 382 617 841 707 1385 14 88 18 165 18 390 0 248 -3 295 -23 408 -191
1066 -991 1868 -2053 2057 -103 19 -169 23 -389 26 -146 1 -299 -2 -340 -7z
m160 -444 l0 -135 155 0 155 0 0 135 0 136 53 -7 c368 -43 689 -158 978 -349
520 -345 872 -893 964 -1500 8 -55 15 -117 15 -137 l0 -38 -120 0 -120 0 0
-155 0 -155 121 0 122 0 -7 -82 c-13 -151 -67 -371 -137 -549 -77 -198 -201
-412 -336 -579 -74 -91 -254 -270 -343 -341 -325 -257 -705 -412 -1137 -463
l-53 -7 0 146 0 145 -155 0 -155 0 0 -146 0 -146 -62 7 c-435 46 -828 208
-1163 478 -113 91 -297 284 -383 402 -234 319 -362 651 -417 1078 l-6 47 140
0 141 0 0 155 0 155 -140 0 c-127 0 -140 2 -140 18 0 10 5 56 11 102 59 476
267 911 599 1254 234 242 485 409 785 525 180 69 447 131 608 140 l27 1 0
-135z"/>
<path d="M1391 3248 c-65 -33 -86 -67 -86 -137 0 -46 5 -64 25 -90 17 -22 154
-107 444 -274 l419 -242 11 -55 c20 -99 76 -173 170 -223 60 -32 203 -32 263
1 63 33 106 74 139 134 26 47 29 63 29 139 l0 85 388 224 c214 123 400 232
413 242 53 42 17 139 -52 137 -19 0 -167 -81 -429 -233 l-400 -232 -48 33
c-27 18 -67 38 -90 44 -53 14 -153 7 -195 -15 l-33 -17 -424 245 c-273 158
-437 248 -462 251 -28 5 -49 0 -82 -17z"/>
</g>
</svg>
