<?xml version="1.0" standalone="no"?>
<!DOCTYPE svg PUBLIC "-//W3C//DTD SVG 20010904//EN"
 "http://www.w3.org/TR/2001/REC-SVG-20010904/DTD/svg10.dtd">
<svg version="1.0" xmlns="http://www.w3.org/2000/svg"
 width="500.000000pt" height="500.000000pt" viewBox="0 0 500.000000 500.000000"
 preserveAspectRatio="xMidYMid meet">

<g transform="translate(0.000000,500.000000) scale(0.100000,-0.100000)"
fill="#000000" stroke="none">
<path d="M2300 4993 c-224 -21 -397 -54 -568 -108 -894 -283 -1557 -1041
-1716 -1960 -23 -129 -23 -721 0 -850 88 -511 357 -1018 725 -1370 399 -382
871 -608 1434 -687 137 -19 534 -16 670 5 571 90 1029 320 1421 711 589 590
841 1407 689 2231 -152 822 -731 1531 -1510 1849 -306 124 -643 188 -975 184
-74 0 -151 -3 -170 -5z m411 -313 c260 -27 503 -97 744 -214 238 -117 416
-244 601 -432 438 -444 663 -1050 623 -1679 -54 -844 -598 -1586 -1391 -1895
-730 -285 -1558 -156 -2168 337 -101 82 -291 279 -367 379 -591 791 -591 1857
0 2648 76 100 266 297 367 379 445 360 1026 534 1591 477z"/>
<path d="M1895 3891 c-88 -23 -172 -94 -211 -176 -33 -69 -32 -160 1 -253 14
-38 25 -72 25 -76 0 -3 -126 -6 -280 -6 l-280 0 0 -375 0 -375 80 0 80 0 0
-720 0 -720 1195 0 1195 0 0 720 0 720 80 0 80 0 0 370 0 370 -291 0 -290 0
19 28 c101 146 51 367 -104 458 -54 32 -150 42 -221 25 -107 -27 -267 -128
-393 -250 l-78 -76 -84 81 c-189 182 -403 287 -523 255z m1228 -227 c9 -3 17
-13 17 -23 0 -35 -51 -119 -88 -144 -80 -54 -363 -113 -362 -74 1 32 63 109
128 158 108 82 209 109 305 83z m-1072 -40 c78 -23 125 -50 180 -101 52 -49
95 -110 85 -120 -3 -4 -30 -8 -59 -11 -57 -4 -193 26 -259 59 -67 34 -123 126
-104 174 7 20 86 20 157 -1z m119 -629 l0 -255 -450 0 -450 0 0 255 0 255 450
0 450 0 0 -255z m1600 -5 l0 -260 -465 0 -465 0 0 260 0 260 465 0 465 0 0
-260z m-1620 -1025 l0 -655 -355 0 -355 0 0 655 0 655 355 0 355 0 0 -655z
m1430 0 l0 -655 -360 0 -360 0 0 655 0 655 360 0 360 0 0 -655z"/>
</g>
</svg>
